PathFileType	4	(X/Y/Z)	50_2_13_p0_0-419.trc
DataRate	CameraRate	NumFrames	NumMarkers	Units	OrigDataRate	OrigDataStartFrame	OrigNumFrames
48.0	48.0	5	27	m	48.0	315	420
Frame#	Time	RHip			RKnee			RAnkle			RBigToe			RSmallToe			RHeel			LHip			LKnee			LAnkle			LBigToe			LSmallToe			LHeel			Neck			Head			Nose			RShoulder			RElbow			RWrist			RThumb			RIndex			RPinky			LShoulder			LElbow			LWrist			LThumb			LIndex			LPinky			
		X1	Y1	Z1	X2	Y2	Z2	X3	Y3	Z3	X4	Y4	Z4	X5	Y5	Z5	X6	Y6	Z6	X7	Y7	Z7	X8	Y8	Z8	X9	Y9	Z9	X10	Y10	Z10	X11	Y11	Z11	X12	Y12	Z12	X13	Y13	Z13	X14	Y14	Z14	X15	Y15	Z15	X16	Y16	Z16	X17	Y17	Z17	X18	Y18	Z18	X19	Y19	Z19	X20	Y20	Z20	X21	Y21	Z21	X22	Y22	Z22	X23	Y23	Z23	X24	Y24	Z24	X25	Y25	Z25	X26	Y26	Z26	X27	Y27	Z27	
315	6.5625	0.31128426388514613	0.7250135350083173	0.4883886824474234	0.3199202126724614	0.8707641881387881	0.9263869609650716	0.3161671990073585	0.9848453868222814	1.343577103098009	0.2537456082217832	0.8450553681943493	1.412562812052614	0.32355736804086566	0.8411299890711205	1.4113557994010795	0.29145551414709425	1.0690686512227747	1.3865737445599338	0.10398321820794597	0.7545302687458819	0.4921195969861456	0.12930864888232033	0.7897199499931651	0.914804225887358	0.10924238191942864	1.0123313419283833	1.346449117457041	0.10274227990314318	0.8605917474470618	1.3966905622603374	0.040480381415815954	0.8796703858539711	1.3896779216045752	0.12169783889708699	1.0759358158906247	1.3963210304992641	0.18915069622213157	0.5977240834306612	0.010620553591094862	0.20694565641260051	0.4390938314512575	-0.1996722235222994	0.1881573916293246	0.4020919480585137	-0.06150987601927293	0.3357048067656986	0.5615738965683911	0.09769895516121666	0.40090286435876993	0.686037219692458	0.35322212351893834	0.3827224015579597	0.6828139881918801	0.6198021535825134	0.33536451848866694	0.6375567510198957	0.7112069394774709	0.3484734569915602	0.6806417723390799	0.7394085748254071	0.3871986325039915	0.7124837112199146	0.7431365726542264	0.054518337852560994	0.6268547266353522	0.09842990209429013	0.0014706802706762909	0.741016231733682	0.36168530858094666	-0.011458905213431935	0.7251945990935278	0.6095135760905077	0.035744038452703145	0.6969645243491959	0.7014846794835098	0.006872099924463444	0.6928275706958472	0.7134247318902622	-0.02842752978717679	0.7678850966074412	0.7135745093254872
316	6.583333333333333	0.31631498080825865	0.7408727159554415	0.4928491483961404	0.3209047581879458	0.8741316732488457	0.9268436901495601	0.3161665376271582	0.9847697247463477	1.3435409903790982	0.25358954308644527	0.8448018558340412	1.4127305093007705	0.3263330864256696	0.8230845087006754	1.4057680832304356	0.2914824968995861	1.0690885467117506	1.3864191842549118	0.10391937775381822	0.7586846247933073	0.5003974607864309	0.13345196573852608	0.7911419850441537	0.9190142027062059	0.10919296931903982	1.0125303354745376	1.3465813175059822	0.10277237812096147	0.8607063265240137	1.3967611235445332	0.04479106034157974	0.8974400505531185	1.399166185042124	0.1152613475551394	1.073863016860715	1.4002306337467592	0.1894250173027743	0.6000596411516184	0.014723803526648403	0.21069427134763583	0.4501654284961559	-0.201893291751502	0.18847334130478186	0.40237952591180687	-0.061272911940296146	0.33575137460571797	0.5617873717913621	0.09795695719722292	0.40102506696485607	0.6862423653537366	0.35716569959176714	0.38261531765386947	0.68276708563795	0.6199089790527662	0.3327642994599703	0.6520718832259955	0.7131890982794262	0.34838592146683095	0.6808773408648372	0.7396002888282333	0.38722117894436847	0.7119250919706813	0.7431385918987273	0.054449892083176424	0.6269088250140178	0.09841151068499078	0.0007143653287177661	0.7408628451939104	0.36155716979593444	-0.01624174992993754	0.7401679190695983	0.610763092715512	0.035572813826717675	0.6973577468966047	0.70162782256774	0.006672786652492792	0.6928250950518853	0.7134744558053495	-0.031118392750246485	0.7534859874012275	0.7161835702864949
317	6.604166666666667	0.31600129983485	0.7377586535355949	0.4848885188442244	0.32179060291314243	0.8724471928377106	0.9266782120143384	0.3162402692393655	0.9848030414339064	1.3436391386653261	0.25360495916469983	0.8440828969528031	1.4127820465842955	0.3265148606630323	0.8229658681628667	1.4057033335272178	0.2913944908378742	1.068698857331777	1.3864587606189882	0.10436540684514008	0.7574371584353853	0.4967688489675033	0.133567356104414	0.7908233104083306	0.9189495417655487	0.10928385287733422	1.0123193854724013	1.3465773162285568	0.10192582735574203	0.86249729733194	1.4012598913190502	0.044800675556151165	0.8967286952584009	1.399136012795337	0.11471521175905441	1.0722804687721754	1.4001599480999052	0.19328408029984817	0.6135755156883059	0.016901780311772266	0.20651299661160466	0.4383979554176806	-0.19924116924784946	0.1929378085354837	0.4053936005753461	-0.05784048018977318	0.33568155580679343	0.5616669050999712	0.09792428896992234	0.40576804841761405	0.6992109168798176	0.3570643334796157	0.3824067929652904	0.683211660797754	0.620149830670013	0.3351105636614488	0.6372717252296408	0.7117205678347197	0.3484389501295451	0.6804687782798358	0.7396905866597433	0.38656633135824775	0.712381591666393	0.7434813223862259	0.0544360083974953	0.6271841644388332	0.0985861598269252	0.0006310426717051206	0.7404148082880079	0.36183830857139765	-0.01627928647867451	0.7405286328711149	0.6108920452484374	0.035867156220875974	0.6997918387446964	0.7060500566851712	0.006316979324073683	0.6966286658946843	0.7213119881228415	-0.031680843817038326	0.7542990068789392	0.7195209469330518
318	6.625	0.3159505381650193	0.7378368852011985	0.48494967784355564	0.3216208623515711	0.876678626417632	0.9316862684210147	0.3160745011603871	0.9847478243368494	1.3439184182965496	0.25354832057877885	0.8437034570279985	1.4126982414556761	0.3261022236923712	0.8222074172416615	1.4057601448832153	0.2926046904083246	1.0714330133898902	1.3965355639130872	0.10424341437113709	0.757607539159082	0.4968394582321963	0.13003264935534486	0.7924335402219647	0.9197237326558436	0.11033394190146537	1.0155471097023718	1.3519954394576366	0.10662967438107011	0.8426917966482061	1.3911594645453997	0.041439468338235266	0.8809926339306349	1.3942984954232742	0.12002834779162629	1.0759708480014587	1.4014741496412357	0.189378040832659	0.6005706463269681	0.014964533647029309	0.20268466991311826	0.43773871444718737	-0.19543291688530773	0.1883983981953895	0.4053331974659253	-0.05428989636192101	0.3354547645455038	0.5623482807778203	0.10145807878828496	0.4058938543179892	0.6993223251331528	0.35711222407024734	0.3831474917831883	0.685421952367851	0.6240610117956386	0.3351140752204936	0.6370176528630741	0.7119321905264397	0.3485284895647173	0.6805280099834078	0.7401611719191433	0.38674308443936634	0.7127234708987581	0.7436567813770297	0.054712848221073564	0.6262963916209561	0.09511247767743593	-0.003612534776367451	0.7396647314691873	0.3617904504900034	-0.01625092460440404	0.7404179456822582	0.6109662035907794	0.03213991221428993	0.6981643278101971	0.7059856449387392	0.006147359911763469	0.6969184235600001	0.7213561924182064	-0.03640178969443714	0.7535712949654597	0.7195397041909508
319	6.645833333333333	0.31591127264162167	0.7379381306018452	0.4849196264423056	0.3209733705264641	0.8784589879853326	0.9409441720755339	0.31523166194433333	0.9864159424727441	1.3487187708985025	0.2578087381701091	0.857817615295045	1.4172419294985907	0.32623445568925813	0.8226883021725965	1.4059354736130845	0.2914902345248921	1.068058747588244	1.3910388894055037	0.10372093916004267	0.755141135691159	0.4959140393032443	0.13012702261147435	0.7920886145442227	0.9235262332492784	0.10967708790674596	1.0122419005133474	1.3465980693603197	0.10654709919401324	0.8473654298727705	1.4000367680359853	0.041741532890152304	0.8797090485400425	1.3940290806262137	0.12021827480048093	1.0750745170511038	1.401002153439173	0.18904463199289812	0.6012640366012229	0.018301322501185924	0.2023665600950664	0.4371092645552703	-0.1985565716558339	0.18402820927100502	0.40485846317582064	-0.05383633548804062	0.3356168085543015	0.5615741111364384	0.09792073529840578	0.40585213837251194	0.6992777220268231	0.3570999245867584	0.38309940530132985	0.6855860838717202	0.6241274144374988	0.33505365389834335	0.6366801443429593	0.7120610947642025	0.34868583700930383	0.6802199930629865	0.7434934712749971	0.38681335754150337	0.7134086700862795	0.7437608579763363	0.054323443516998436	0.6270018540076282	0.09864291236394203	-0.003830939767167091	0.740152325639189	0.3616097255157077	-0.02092800668516787	0.7553582827558831	0.6119925462408392	0.02741276577292275	0.7121374359952346	0.7073631295398386	0.0012996681568512513	0.6971720746798853	0.7214445588013993	-0.0316995789618566	0.7548782273534153	0.7197826526207726
